# xmcd
#
# Track frame offsets:
#	150
#	8107
#	19135
#	23792
#	32235
#	40800
#	47530
#	56037
#	60482
#	73435
#	83555
#	93780
#	99345
#	110455
#	118825
#	129407
#	138560
#	149255
#	155632
#	162532
#	169627
#	174052
#	180502
#	187895
#
# Disc length: 2648 seconds
#
# Revision: 1
# Processed by: cddbd v1.5.1PL0 Copyright (c) Steve Scherf et al.
# Submitted via: CDex 1.50Beta5
#
DISCID=3b0a5618
DTITLE=坂田おさむ - よいこのどうよう3
DYEAR=1991
DGENRE=
TTITLE0=坂田おさむ/もりのくまさん
TTITLE1=東京荒川少年少女(合)/はるよこい
TTITLE2=森みゆき/おかあさん
TTITLE3=ひばり児童合唱団/なかよしこみち
TTITLE4=坂田おさむ/ツッピンとびうお
TTITLE5=坂田おさむ/おなかのへるうた
TTITLE6=坂田おさむ/クラリネットをこわしちゃった
TTITLE7=森みゆき/おつかいありさん
TTITLE8=森みゆき/あかいくつ
TTITLE9=東京荒川少年少女(合)/めだかのがっこう
TTITLE10=森みゆき/ごひきのこぶたとチャールストン
TTITLE11=森みゆき/やぎさんゆうびん
TTITLE12=東京荒川少年少女(合)/ぶんぶんぶん
TTITLE13=東京荒川少年少女(合)/ひなまつり
TTITLE14=東京荒川少年少女(合)/むすんでひらいて
TTITLE15=東京放送児童(合)/もみじ
TTITLE16=東京荒川少年少女(合)/たきび
TTITLE17=ひばり児童合唱団/ずいずいずっころばし
TTITLE18=坂田おさむ/わらいかわせみにはなすなよ
TTITLE19=ひばり児童合唱団/はるがきた
TTITLE20=杉並児童(合)/たなばたさま
TTITLE21=ひばり児童合唱団/しょうじょうじのたぬきばやし
TTITLE22=東京放送児童(合)/ゆうやけこやけ
TTITLE23=東京放送児童(合)/せんろはつづくよどこまでも
EXTD=
EXTT0=
EXTT1=
EXTT2=
EXTT3=
EXTT4=
EXTT5=
EXTT6=
EXTT7=
EXTT8=
EXTT9=
EXTT10=
EXTT11=
EXTT12=
EXTT13=
EXTT14=
EXTT15=
EXTT16=
EXTT17=
EXTT18=
EXTT19=
EXTT20=
EXTT21=
EXTT22=
EXTT23=
PLAYORDER=
